<svg xmlns="http://www.w3.org/2000/svg" xmlns:xlink="http://www.w3.org/1999/xlink" version="1.1" x="0px" y="0px" viewBox="0 0 48 60" style="enable-background:new 0 0 48 48;" xml:space="preserve"><path d="M41.25,36.88C41.25,36.88,41.25,36.88,41.25,36.88c-1.04-0.06-1.89-0.16-2.68-0.32c-4.97-1-9.25-3.88-12.06-8.11  s-3.81-9.3-2.81-14.26c0.72-3.55,2.44-6.82,4.97-9.44c0.27-0.28,0.35-0.7,0.21-1.06c-0.14-0.36-0.49-0.61-0.87-0.63  C16.83,2.4,7.15,10.62,5.93,21.78c-1.07,9.85,5.27,19.44,14.76,22.3c2,0.6,4.05,0.91,6.12,0.91c5.73,0,11.08-2.28,15.09-6.41  c0.27-0.28,0.35-0.7,0.21-1.06C41.98,37.16,41.63,36.91,41.25,36.88z M21.27,42.17C12.69,39.58,6.95,30.91,7.92,21.99  c1.01-9.32,8.57-16.43,17.84-16.95c-2,2.56-3.38,5.56-4.03,8.75c-2.29,11.35,5.09,22.45,16.44,24.73c0.23,0.05,0.47,0.09,0.71,0.13  C33.97,42.72,27.46,44.03,21.27,42.17z"/><text x="0" y="63" fill="#000000" font-size="5px" font-weight="bold" font-family="'Helvetica Neue', Helvetica, Arial-Unicode, Arial, Sans-serif">Created by newstudiodesign10</text><text x="0" y="68" fill="#000000" font-size="5px" font-weight="bold" font-family="'Helvetica Neue', Helvetica, Arial-Unicode, Arial, Sans-serif">from the Noun Project</text></svg>